<mxfile host="app.diagrams.net" modified="2022-01-02T18:53:09.903Z" agent="5.0 (Windows NT 10.0; Win64; x64) AppleWebKit/537.36 (KHTML, like Gecko) Chrome/96.0.4664.110 Safari/537.36" etag="wv9PxyoZXVtpns5bfhRY" version="16.1.2" type="github">
  <diagram id="C5RBs43oDa-KdzZeNtuy" name="Page-1">
    <mxGraphModel dx="1278" dy="624" grid="1" gridSize="10" guides="1" tooltips="1" connect="1" arrows="1" fold="1" page="1" pageScale="1" pageWidth="827" pageHeight="1169" math="0" shadow="0">
      <root>
        <mxCell id="WIyWlLk6GJQsqaUBKTNV-0" />
        <mxCell id="WIyWlLk6GJQsqaUBKTNV-1" parent="WIyWlLk6GJQsqaUBKTNV-0" />
        <mxCell id="pktRikgzfOd4Zz710QA0-42" style="edgeStyle=orthogonalEdgeStyle;rounded=0;orthogonalLoop=1;jettySize=auto;html=1;entryX=0.5;entryY=0;entryDx=0;entryDy=0;fontSize=10;" edge="1" parent="WIyWlLk6GJQsqaUBKTNV-1" source="pktRikgzfOd4Zz710QA0-2" target="pktRikgzfOd4Zz710QA0-8">
          <mxGeometry relative="1" as="geometry">
            <Array as="points">
              <mxPoint x="430" y="440" />
              <mxPoint x="535" y="440" />
            </Array>
          </mxGeometry>
        </mxCell>
        <mxCell id="pktRikgzfOd4Zz710QA0-2" value="&lt;font style=&quot;font-size: 14px&quot;&gt;微乳液的制备&lt;/font&gt;" style="rounded=1;whiteSpace=wrap;html=1;" vertex="1" parent="WIyWlLk6GJQsqaUBKTNV-1">
          <mxGeometry x="370" y="350" width="120" height="40" as="geometry" />
        </mxCell>
        <mxCell id="pktRikgzfOd4Zz710QA0-5" style="edgeStyle=orthogonalEdgeStyle;rounded=0;orthogonalLoop=1;jettySize=auto;html=1;fontSize=14;exitX=0.5;exitY=1;exitDx=0;exitDy=0;" edge="1" parent="WIyWlLk6GJQsqaUBKTNV-1" source="pktRikgzfOd4Zz710QA0-2" target="pktRikgzfOd4Zz710QA0-7">
          <mxGeometry relative="1" as="geometry">
            <mxPoint x="360" y="560" as="targetPoint" />
            <mxPoint x="417.5" y="470" as="sourcePoint" />
            <Array as="points">
              <mxPoint x="430" y="440" />
              <mxPoint x="320" y="440" />
            </Array>
          </mxGeometry>
        </mxCell>
        <mxCell id="pktRikgzfOd4Zz710QA0-11" style="edgeStyle=orthogonalEdgeStyle;rounded=0;orthogonalLoop=1;jettySize=auto;html=1;exitX=0.5;exitY=1;exitDx=0;exitDy=0;fontSize=14;entryX=0.5;entryY=0;entryDx=0;entryDy=0;" edge="1" parent="WIyWlLk6GJQsqaUBKTNV-1" source="pktRikgzfOd4Zz710QA0-7" target="pktRikgzfOd4Zz710QA0-14">
          <mxGeometry relative="1" as="geometry">
            <mxPoint x="420" y="570" as="targetPoint" />
            <Array as="points">
              <mxPoint x="320" y="540" />
              <mxPoint x="420" y="540" />
            </Array>
          </mxGeometry>
        </mxCell>
        <mxCell id="pktRikgzfOd4Zz710QA0-7" value="&lt;font style=&quot;font-size: 14px&quot;&gt;正交试验分析&lt;/font&gt;" style="rounded=1;whiteSpace=wrap;html=1;fontSize=14;" vertex="1" parent="WIyWlLk6GJQsqaUBKTNV-1">
          <mxGeometry x="260" y="470" width="100" height="40" as="geometry" />
        </mxCell>
        <mxCell id="pktRikgzfOd4Zz710QA0-12" style="edgeStyle=orthogonalEdgeStyle;rounded=0;orthogonalLoop=1;jettySize=auto;html=1;exitX=0.5;exitY=1;exitDx=0;exitDy=0;fontSize=14;entryX=0.5;entryY=0;entryDx=0;entryDy=0;" edge="1" parent="WIyWlLk6GJQsqaUBKTNV-1" source="pktRikgzfOd4Zz710QA0-8" target="pktRikgzfOd4Zz710QA0-14">
          <mxGeometry relative="1" as="geometry">
            <mxPoint x="420" y="570" as="targetPoint" />
            <Array as="points">
              <mxPoint x="535" y="540" />
              <mxPoint x="420" y="540" />
            </Array>
          </mxGeometry>
        </mxCell>
        <mxCell id="pktRikgzfOd4Zz710QA0-8" value="&lt;font style=&quot;font-size: 14px&quot;&gt;拟三元相图&lt;/font&gt;" style="rounded=1;whiteSpace=wrap;html=1;fontSize=14;" vertex="1" parent="WIyWlLk6GJQsqaUBKTNV-1">
          <mxGeometry x="480" y="470" width="110" height="40" as="geometry" />
        </mxCell>
        <mxCell id="pktRikgzfOd4Zz710QA0-10" value="&lt;h1&gt;&lt;font style=&quot;font-weight: normal ; font-size: 10px&quot;&gt;成分含量的确定&lt;/font&gt;&lt;/h1&gt;&lt;p&gt;&lt;br&gt;&lt;/p&gt;" style="text;html=1;strokeColor=none;fillColor=none;spacing=5;spacingTop=-20;whiteSpace=wrap;overflow=hidden;rounded=0;fontSize=14;" vertex="1" parent="WIyWlLk6GJQsqaUBKTNV-1">
          <mxGeometry x="430" y="390" width="120" height="50" as="geometry" />
        </mxCell>
        <mxCell id="pktRikgzfOd4Zz710QA0-16" style="edgeStyle=orthogonalEdgeStyle;rounded=0;orthogonalLoop=1;jettySize=auto;html=1;exitX=0.5;exitY=1;exitDx=0;exitDy=0;fontSize=14;" edge="1" parent="WIyWlLk6GJQsqaUBKTNV-1" source="pktRikgzfOd4Zz710QA0-14">
          <mxGeometry relative="1" as="geometry">
            <mxPoint x="420" y="630" as="targetPoint" />
          </mxGeometry>
        </mxCell>
        <mxCell id="pktRikgzfOd4Zz710QA0-19" style="edgeStyle=orthogonalEdgeStyle;rounded=0;orthogonalLoop=1;jettySize=auto;html=1;exitX=0.5;exitY=1;exitDx=0;exitDy=0;fontSize=14;" edge="1" parent="WIyWlLk6GJQsqaUBKTNV-1" source="pktRikgzfOd4Zz710QA0-17" target="pktRikgzfOd4Zz710QA0-20">
          <mxGeometry relative="1" as="geometry">
            <mxPoint x="260" y="680" as="targetPoint" />
          </mxGeometry>
        </mxCell>
        <mxCell id="pktRikgzfOd4Zz710QA0-14" value="微乳液" style="rounded=1;whiteSpace=wrap;html=1;fontSize=14;" vertex="1" parent="WIyWlLk6GJQsqaUBKTNV-1">
          <mxGeometry x="360" y="560" width="120" height="30" as="geometry" />
        </mxCell>
        <mxCell id="pktRikgzfOd4Zz710QA0-17" value="虫白蜡微乳液" style="rounded=1;whiteSpace=wrap;html=1;fontSize=14;" vertex="1" parent="WIyWlLk6GJQsqaUBKTNV-1">
          <mxGeometry x="360" y="610" width="120" height="30" as="geometry" />
        </mxCell>
        <mxCell id="pktRikgzfOd4Zz710QA0-18" value="&lt;font style=&quot;font-size: 10px&quot;&gt;加入虫白蜡&lt;/font&gt;" style="text;html=1;strokeColor=none;fillColor=none;align=center;verticalAlign=middle;whiteSpace=wrap;rounded=0;fontSize=14;" vertex="1" parent="WIyWlLk6GJQsqaUBKTNV-1">
          <mxGeometry x="370" y="590" width="170" height="20" as="geometry" />
        </mxCell>
        <mxCell id="pktRikgzfOd4Zz710QA0-25" style="edgeStyle=orthogonalEdgeStyle;rounded=0;orthogonalLoop=1;jettySize=auto;html=1;entryX=0.5;entryY=0;entryDx=0;entryDy=0;fontSize=14;" edge="1" parent="WIyWlLk6GJQsqaUBKTNV-1" source="pktRikgzfOd4Zz710QA0-20" target="pktRikgzfOd4Zz710QA0-21">
          <mxGeometry relative="1" as="geometry">
            <Array as="points">
              <mxPoint x="420" y="710" />
              <mxPoint x="340" y="710" />
            </Array>
          </mxGeometry>
        </mxCell>
        <mxCell id="pktRikgzfOd4Zz710QA0-27" style="edgeStyle=orthogonalEdgeStyle;rounded=0;orthogonalLoop=1;jettySize=auto;html=1;entryX=0.5;entryY=0;entryDx=0;entryDy=0;fontSize=14;" edge="1" parent="WIyWlLk6GJQsqaUBKTNV-1" source="pktRikgzfOd4Zz710QA0-20" target="pktRikgzfOd4Zz710QA0-26">
          <mxGeometry relative="1" as="geometry" />
        </mxCell>
        <mxCell id="pktRikgzfOd4Zz710QA0-32" style="edgeStyle=orthogonalEdgeStyle;rounded=0;orthogonalLoop=1;jettySize=auto;html=1;exitX=0.5;exitY=1;exitDx=0;exitDy=0;fontSize=10;" edge="1" parent="WIyWlLk6GJQsqaUBKTNV-1" source="pktRikgzfOd4Zz710QA0-20">
          <mxGeometry relative="1" as="geometry">
            <mxPoint x="510" y="730" as="targetPoint" />
          </mxGeometry>
        </mxCell>
        <mxCell id="pktRikgzfOd4Zz710QA0-20" value="理化性质测定" style="rounded=1;whiteSpace=wrap;html=1;fontSize=14;" vertex="1" parent="WIyWlLk6GJQsqaUBKTNV-1">
          <mxGeometry x="360" y="660" width="120" height="30" as="geometry" />
        </mxCell>
        <mxCell id="pktRikgzfOd4Zz710QA0-22" style="edgeStyle=orthogonalEdgeStyle;rounded=0;orthogonalLoop=1;jettySize=auto;html=1;entryX=0.5;entryY=0;entryDx=0;entryDy=0;fontSize=14;exitX=0.5;exitY=0;exitDx=0;exitDy=0;" edge="1" parent="WIyWlLk6GJQsqaUBKTNV-1" source="pktRikgzfOd4Zz710QA0-21" target="pktRikgzfOd4Zz710QA0-21">
          <mxGeometry relative="1" as="geometry" />
        </mxCell>
        <mxCell id="pktRikgzfOd4Zz710QA0-36" style="edgeStyle=orthogonalEdgeStyle;rounded=0;orthogonalLoop=1;jettySize=auto;html=1;fontSize=10;" edge="1" parent="WIyWlLk6GJQsqaUBKTNV-1" source="pktRikgzfOd4Zz710QA0-21">
          <mxGeometry relative="1" as="geometry">
            <mxPoint x="420" y="890" as="targetPoint" />
            <Array as="points">
              <mxPoint x="340" y="820" />
              <mxPoint x="420" y="820" />
            </Array>
          </mxGeometry>
        </mxCell>
        <mxCell id="pktRikgzfOd4Zz710QA0-21" value="&lt;h4 style=&quot;margin-left: 0cm ; text-indent: 0cm&quot;&gt;&lt;span style=&quot;font-weight: normal&quot;&gt;&lt;span&gt;动态光散射&lt;/span&gt;&lt;span lang=&quot;EN-US&quot;&gt;(DLS)&lt;/span&gt;&lt;span&gt;测量&lt;/span&gt;&lt;/span&gt;&lt;span lang=&quot;EN-US&quot;&gt;&lt;/span&gt;&lt;/h4&gt;" style="rounded=1;whiteSpace=wrap;html=1;fontSize=14;" vertex="1" parent="WIyWlLk6GJQsqaUBKTNV-1">
          <mxGeometry x="310" y="730" width="60" height="80" as="geometry" />
        </mxCell>
        <mxCell id="pktRikgzfOd4Zz710QA0-37" style="edgeStyle=orthogonalEdgeStyle;rounded=0;orthogonalLoop=1;jettySize=auto;html=1;fontSize=10;" edge="1" parent="WIyWlLk6GJQsqaUBKTNV-1" source="pktRikgzfOd4Zz710QA0-26">
          <mxGeometry relative="1" as="geometry">
            <mxPoint x="420" y="890" as="targetPoint" />
          </mxGeometry>
        </mxCell>
        <mxCell id="pktRikgzfOd4Zz710QA0-26" value="&lt;h4 style=&quot;margin-left: 0cm ; text-indent: 0cm&quot;&gt;&lt;span style=&quot;font-weight: normal&quot;&gt;&lt;span lang=&quot;EN-US&quot;&gt;Zeta&lt;/span&gt;&lt;span&gt;电位测量&lt;/span&gt;&lt;/span&gt;&lt;span lang=&quot;EN-US&quot;&gt;&lt;/span&gt;&lt;/h4&gt;" style="rounded=1;whiteSpace=wrap;html=1;fontSize=14;" vertex="1" parent="WIyWlLk6GJQsqaUBKTNV-1">
          <mxGeometry x="387" y="730" width="66" height="80" as="geometry" />
        </mxCell>
        <mxCell id="pktRikgzfOd4Zz710QA0-54" style="edgeStyle=orthogonalEdgeStyle;rounded=0;orthogonalLoop=1;jettySize=auto;html=1;fontSize=10;" edge="1" parent="WIyWlLk6GJQsqaUBKTNV-1" source="pktRikgzfOd4Zz710QA0-33">
          <mxGeometry relative="1" as="geometry">
            <mxPoint x="420" y="890" as="targetPoint" />
            <Array as="points">
              <mxPoint x="505" y="820" />
              <mxPoint x="420" y="820" />
            </Array>
          </mxGeometry>
        </mxCell>
        <mxCell id="pktRikgzfOd4Zz710QA0-33" value="虫白蜡含量的测定" style="rounded=1;whiteSpace=wrap;html=1;fontSize=10;" vertex="1" parent="WIyWlLk6GJQsqaUBKTNV-1">
          <mxGeometry x="470" y="730" width="70" height="80" as="geometry" />
        </mxCell>
        <mxCell id="pktRikgzfOd4Zz710QA0-39" style="edgeStyle=orthogonalEdgeStyle;rounded=0;orthogonalLoop=1;jettySize=auto;html=1;fontSize=10;entryX=0;entryY=0.5;entryDx=0;entryDy=0;" edge="1" parent="WIyWlLk6GJQsqaUBKTNV-1" target="pktRikgzfOd4Zz710QA0-7">
          <mxGeometry relative="1" as="geometry">
            <mxPoint x="250" y="490" as="targetPoint" />
            <mxPoint x="420" y="860" as="sourcePoint" />
            <Array as="points">
              <mxPoint x="200" y="860" />
              <mxPoint x="200" y="490" />
            </Array>
          </mxGeometry>
        </mxCell>
        <mxCell id="pktRikgzfOd4Zz710QA0-40" style="edgeStyle=orthogonalEdgeStyle;rounded=0;orthogonalLoop=1;jettySize=auto;html=1;fontSize=10;entryX=1;entryY=0.5;entryDx=0;entryDy=0;" edge="1" parent="WIyWlLk6GJQsqaUBKTNV-1" target="pktRikgzfOd4Zz710QA0-8">
          <mxGeometry relative="1" as="geometry">
            <mxPoint x="650" y="490" as="targetPoint" />
            <mxPoint x="420" y="890" as="sourcePoint" />
            <Array as="points">
              <mxPoint x="420" y="860" />
              <mxPoint x="650" y="860" />
              <mxPoint x="650" y="490" />
            </Array>
          </mxGeometry>
        </mxCell>
        <mxCell id="pktRikgzfOd4Zz710QA0-45" style="edgeStyle=orthogonalEdgeStyle;rounded=0;orthogonalLoop=1;jettySize=auto;html=1;exitX=0.5;exitY=1;exitDx=0;exitDy=0;fontSize=10;" edge="1" parent="WIyWlLk6GJQsqaUBKTNV-1" source="pktRikgzfOd4Zz710QA0-35">
          <mxGeometry relative="1" as="geometry">
            <mxPoint x="420" y="960" as="targetPoint" />
          </mxGeometry>
        </mxCell>
        <mxCell id="pktRikgzfOd4Zz710QA0-49" value="" style="edgeStyle=orthogonalEdgeStyle;rounded=0;orthogonalLoop=1;jettySize=auto;html=1;fontSize=10;entryX=0.5;entryY=0;entryDx=0;entryDy=0;" edge="1" parent="WIyWlLk6GJQsqaUBKTNV-1" target="pktRikgzfOd4Zz710QA0-35">
          <mxGeometry relative="1" as="geometry">
            <mxPoint x="420" y="890" as="sourcePoint" />
            <Array as="points" />
          </mxGeometry>
        </mxCell>
        <mxCell id="pktRikgzfOd4Zz710QA0-35" value="最佳虫白蜡微乳液" style="rounded=1;whiteSpace=wrap;html=1;fontSize=10;" vertex="1" parent="WIyWlLk6GJQsqaUBKTNV-1">
          <mxGeometry x="360" y="890" width="120" height="40" as="geometry" />
        </mxCell>
        <mxCell id="pktRikgzfOd4Zz710QA0-46" value="&lt;font style=&quot;font-size: 10px&quot;&gt;加入一系列壳聚糖&lt;/font&gt;" style="text;html=1;align=center;verticalAlign=middle;resizable=0;points=[];autosize=1;strokeColor=none;fillColor=none;fontSize=10;" vertex="1" parent="WIyWlLk6GJQsqaUBKTNV-1">
          <mxGeometry x="420" y="940" width="110" height="20" as="geometry" />
        </mxCell>
        <mxCell id="pktRikgzfOd4Zz710QA0-48" value="依据正交实验和拟三元相图结果" style="text;html=1;align=center;verticalAlign=middle;resizable=0;points=[];autosize=1;strokeColor=none;fillColor=none;fontSize=10;" vertex="1" parent="WIyWlLk6GJQsqaUBKTNV-1">
          <mxGeometry x="420" y="860" width="180" height="20" as="geometry" />
        </mxCell>
      </root>
    </mxGraphModel>
  </diagram>
</mxfile>
